<?xml version="1.0" standalone="no"?>
<!DOCTYPE svg PUBLIC "-//W3C//DTD SVG 20010904//EN"
 "http://www.w3.org/TR/2001/REC-SVG-20010904/DTD/svg10.dtd">
<svg version="1.0" xmlns="http://www.w3.org/2000/svg"
 width="2983.000000pt" height="949.000000pt" viewBox="0 0 2983.000000 949.000000"
 preserveAspectRatio="xMidYMid meet">
<metadata>
Created by potrace 1.15, written by Peter Selinger 2001-2017
</metadata>
<g transform="translate(0.000000,949.000000) scale(0.100000,-0.100000)"
fill="#000000" stroke="none">
<path d="M22510 8049 c0 -235 -1 -251 -17 -244 -113 47 -241 64 -350 46 -189
-32 -314 -151 -369 -352 -14 -49 -18 -102 -18 -229 0 -154 2 -170 27 -243 32
-92 59 -137 118 -195 81 -79 201 -118 335 -109 96 6 166 27 225 67 24 16 47
30 51 30 4 0 12 -18 18 -40 l11 -40 104 0 105 0 0 780 0 780 -120 0 -120 0 0
-251z m-63 -411 l58 -23 0 -315 0 -314 -33 -23 c-85 -57 -243 -68 -331 -24
-50 26 -96 87 -116 155 -38 126 -27 340 22 444 27 58 86 105 150 122 60 15
185 4 250 -22z"/>
<path d="M1300 4905 l0 -3305 730 0 730 0 0 1184 0 1185 918 4 c923 4 955 5
1182 43 706 118 1269 531 1524 1117 129 296 190 600 190 952 1 348 -56 651
-176 935 -261 621 -846 1042 -1603 1154 -221 33 -382 36 -1937 36 l-1558 0 0
-3305z m2980 2151 c316 -45 512 -132 661 -294 145 -157 211 -335 225 -599 29
-535 -207 -881 -683 -1002 -195 -50 -263 -54 -1015 -58 l-708 -4 0 991 0 991
698 -3 c603 -4 714 -7 822 -22z"/>
<path d="M8599 8183 c-12 -33 -1848 -4878 -1959 -5173 -43 -113 -130 -342
-193 -510 -63 -168 -163 -431 -222 -585 -59 -154 -109 -288 -112 -298 -5 -16
33 -17 728 -15 l732 3 64 180 c35 99 90 257 123 350 33 94 120 341 194 550
l134 380 1240 3 1240 2 30 -87 c26 -78 351 -1033 437 -1283 l32 -95 756 -3
756 -2 -13 37 c-8 21 -206 551 -441 1178 -235 627 -679 1813 -987 2635 -307
822 -583 1558 -612 1635 -29 77 -136 362 -237 632 l-184 493 -748 0 -747 0
-11 -27z m893 -2009 c459 -1331 689 -2006 686 -2010 -3 -2 -387 -3 -854 -2
l-849 3 87 245 c216 607 246 691 503 1415 86 242 178 501 204 575 27 74 52
145 56 158 4 13 12 21 18 19 6 -2 73 -183 149 -403z"/>
<path d="M13160 4905 l0 -3305 680 0 680 0 0 2211 c0 1754 3 2210 12 2207 12
-4 96 -136 427 -669 63 -101 245 -393 404 -649 300 -481 470 -753 710 -1140
77 -124 235 -378 352 -565 117 -187 299 -479 405 -650 106 -170 254 -408 328
-527 l136 -218 728 0 728 0 0 3305 0 3305 -680 0 -680 0 0 -2215 c0 -1766 -3
-2215 -13 -2215 -6 0 -114 163 -238 362 -278 446 -846 1357 -1102 1768 -104
168 -297 476 -427 685 -355 569 -917 1471 -964 1547 l-41 67 -722 1 -723 0 0
-3305z"/>
<path d="M19358 8204 c-5 -4 -8 -335 -8 -736 l0 -728 135 0 135 0 0 275 0 275
178 0 c284 0 399 41 502 178 57 76 80 160 80 288 0 239 -109 379 -335 433 -57
14 -676 28 -687 15z m608 -219 c55 -16 103 -60 125 -115 20 -49 17 -214 -3
-260 -43 -93 -107 -119 -315 -127 l-153 -6 0 261 0 262 148 0 c102 0 164 -5
198 -15z"/>
<path d="M26140 7970 l0 -130 -75 0 -75 0 0 -95 0 -95 75 0 75 0 0 -348 c0
-406 4 -430 76 -499 28 -28 61 -47 95 -58 71 -20 218 -19 289 3 l55 18 3 80 3
80 -110 -1 c-108 0 -111 1 -138 28 l-28 27 -3 335 -3 335 131 0 130 0 0 95 0
95 -130 0 -130 0 0 130 0 130 -120 0 -120 0 0 -130z"/>
<path d="M20931 7845 c-158 -36 -271 -123 -335 -258 -46 -97 -60 -169 -60
-312 1 -243 83 -409 242 -492 90 -47 143 -58 282 -57 139 1 201 17 292 75 151
97 222 256 222 494 0 290 -103 461 -323 535 -83 28 -233 35 -320 15z m245
-198 c98 -51 135 -135 142 -327 5 -151 -9 -231 -54 -307 -39 -68 -90 -96 -182
-101 -106 -6 -157 10 -208 63 -67 69 -79 119 -79 320 0 162 1 172 26 225 31
65 82 116 135 136 50 19 177 13 220 -9z"/>
<path d="M23398 7850 c-209 -35 -348 -163 -404 -371 -24 -88 -23 -309 0 -399
46 -171 154 -286 316 -337 41 -13 90 -18 190 -18 143 0 218 16 298 65 l32 20
0 86 c0 78 -2 85 -17 79 -122 -46 -139 -50 -263 -50 -121 0 -127 1 -180 31
-100 56 -140 156 -140 345 0 171 49 274 156 329 44 23 60 25 164 24 94 -1 128
-5 188 -26 l72 -24 0 97 0 98 -55 20 c-101 38 -242 50 -357 31z"/>
<path d="M24345 7853 c-72 -6 -169 -23 -217 -39 l-48 -16 0 -85 c0 -83 0 -85
23 -80 62 16 221 29 290 23 102 -7 163 -34 182 -79 8 -18 17 -68 21 -110 5
-62 4 -77 -7 -77 -38 -1 -310 -40 -349 -50 -186 -50 -278 -188 -249 -371 13
-80 38 -128 91 -173 117 -101 369 -101 486 0 24 20 45 34 47 32 3 -2 8 -22 13
-44 l8 -39 102 -3 102 -3 0 428 c0 440 -2 465 -42 538 -42 77 -137 128 -268
144 -83 11 -103 11 -185 4z m253 -760 l-3 -138 -41 -22 c-99 -55 -233 -51
-290 8 -24 26 -29 39 -32 97 -4 77 16 120 68 147 25 13 196 40 278 44 l23 1
-3 -137z"/>
<path d="M25381 7849 c-182 -23 -285 -112 -310 -267 -18 -111 15 -228 81 -289
41 -38 104 -64 230 -95 145 -36 192 -57 214 -100 38 -73 -7 -154 -98 -179 -71
-19 -249 -6 -343 25 -44 14 -83 26 -87 26 -5 0 -8 -38 -8 -85 l0 -85 38 -19
c115 -58 382 -76 518 -34 161 51 229 148 228 328 -1 100 -14 142 -66 200 -45
52 -112 82 -267 122 -185 46 -210 64 -211 146 0 85 65 127 197 127 68 0 185
-20 251 -44 l42 -15 0 94 0 94 -67 21 c-118 36 -219 45 -342 29z"/>
<path d="M21420 5479 c0 -235 -1 -251 -17 -244 -113 47 -241 64 -350 46 -268
-46 -405 -265 -390 -626 7 -181 51 -297 146 -391 82 -80 203 -120 337 -111 96
6 166 27 225 67 24 16 47 30 51 30 4 0 12 -18 18 -40 l11 -40 104 0 105 0 0
780 0 780 -120 0 -120 0 0 -251z m-63 -411 l58 -23 0 -315 0 -314 -33 -23
c-86 -57 -243 -69 -330 -24 -51 26 -97 86 -117 155 -38 126 -27 340 22 444 27
58 86 105 150 122 60 15 185 4 250 -22z"/>
<path d="M19741 5621 c-6 -11 -125 -334 -265 -718 -140 -384 -258 -706 -261
-716 -7 -16 1 -17 116 -15 l124 3 64 183 65 182 273 0 273 0 9 -22 c4 -13 34
-96 66 -185 l57 -163 134 0 c74 0 134 3 134 8 -1 4 -117 333 -259 732 l-258
725 -131 3 c-121 2 -132 1 -141 -17z m224 -601 c52 -150 95 -275 95 -276 0 -2
-92 -4 -205 -4 -113 0 -205 2 -205 4 0 5 178 514 192 549 8 22 13 25 19 15 5
-8 51 -138 104 -288z"/>
<path d="M26440 5400 l0 -130 -75 0 -75 0 0 -95 0 -95 75 0 75 0 0 -348 c0
-406 4 -430 76 -499 28 -28 61 -47 95 -58 71 -20 218 -19 289 3 l55 18 3 80 3
80 -110 -1 c-108 0 -111 1 -138 28 l-28 27 -3 335 -3 335 131 0 130 0 0 95 0
95 -130 0 -130 0 0 130 0 130 -120 0 -120 0 0 -130z"/>
<path d="M23421 5275 c-158 -36 -271 -123 -335 -258 -48 -101 -60 -164 -60
-307 1 -192 40 -315 134 -414 96 -102 204 -141 385 -141 141 1 204 17 292 74
158 102 227 254 227 496 0 290 -103 461 -323 535 -83 28 -233 35 -320 15z
m245 -198 c98 -51 135 -135 142 -327 5 -151 -9 -231 -54 -307 -39 -68 -90 -96
-182 -101 -106 -6 -157 10 -208 63 -67 69 -79 119 -79 320 1 162 2 173 27 225
30 65 81 116 134 136 50 19 177 13 220 -9z"/>
<path d="M24658 5280 c-209 -35 -348 -163 -404 -371 -24 -89 -24 -309 0 -399
46 -171 154 -286 316 -337 41 -13 90 -18 190 -18 143 0 218 16 298 65 l33 20
-2 86 c-1 74 -4 84 -18 79 -119 -46 -137 -50 -261 -50 -121 0 -127 1 -180 31
-100 56 -140 156 -140 345 0 171 49 274 156 329 44 23 60 25 164 24 94 -1 128
-5 188 -26 l72 -24 0 97 0 98 -55 20 c-101 38 -242 50 -357 31z"/>
<path d="M25595 5283 c-67 -4 -160 -21 -217 -39 l-48 -16 0 -85 c0 -83 0 -85
23 -80 62 16 221 29 290 23 102 -7 163 -34 182 -79 8 -18 17 -68 21 -110 5
-62 4 -77 -7 -77 -38 -1 -310 -40 -349 -50 -186 -50 -278 -188 -249 -371 13
-80 38 -128 91 -173 117 -101 369 -101 486 0 24 20 45 34 47 32 3 -2 8 -22 13
-44 l8 -39 102 -3 102 -3 0 428 c0 440 -2 465 -42 538 -42 77 -137 128 -268
144 -46 6 -96 10 -110 9 -14 -1 -47 -3 -75 -5z m253 -760 l-3 -138 -53 -27
c-103 -52 -221 -46 -278 13 -24 25 -29 39 -32 97 -4 77 16 120 68 147 25 13
196 40 278 44 l23 1 -3 -137z"/>
<path d="M27535 5279 c-116 -19 -199 -63 -273 -144 -58 -63 -94 -132 -119
-225 -23 -88 -23 -300 1 -390 67 -258 262 -384 571 -367 125 7 203 26 287 68
l58 29 0 86 c0 78 -2 85 -17 79 -176 -75 -356 -93 -485 -49 -95 32 -161 121
-175 234 l-6 50 359 2 359 3 -3 110 c-9 324 -119 479 -370 515 -77 11 -117 11
-187 -1z m182 -190 c69 -26 114 -101 121 -201 l5 -68 -233 0 -233 0 6 44 c15
105 61 181 130 215 47 23 155 29 204 10z"/>
<path d="M21850 5263 c0 -5 89 -252 197 -550 l197 -543 127 0 126 0 193 538
c106 295 195 543 198 550 3 9 -24 12 -115 12 l-118 0 -133 -400 c-74 -220
-137 -400 -140 -400 -4 0 -67 180 -140 400 l-134 400 -129 0 c-71 0 -129 -3
-129 -7z"/>
<path d="M28320 4255 l0 -125 130 0 130 0 0 125 0 125 -130 0 -130 0 0 -125z"/>
<path d="M26420 2380 l0 -780 120 0 120 0 0 780 0 780 -120 0 -120 0 0 -780z"/>
<path d="M19357 3063 c-4 -3 -7 -334 -7 -735 l0 -728 120 0 120 0 2 550 3 551
320 -551 320 -550 133 0 132 0 -2 733 -3 732 -115 0 -115 0 0 -517 c0 -284 -3
-514 -6 -512 -4 2 -143 236 -310 519 l-302 515 -142 0 c-78 0 -145 -3 -148 -7z"/>
<path d="M22010 2830 l0 -130 -75 0 -75 0 0 -95 0 -95 75 0 75 0 0 -348 c0
-406 4 -430 76 -499 53 -51 119 -73 225 -74 84 -1 138 7 187 28 l32 13 0 78 0
78 -110 -1 c-106 0 -110 1 -137 28 l-28 27 -3 335 -3 335 131 0 130 0 0 95 0
95 -130 0 -130 0 0 130 0 130 -120 0 -120 0 0 -130z"/>
<path d="M21155 2709 c-116 -19 -199 -63 -273 -144 -98 -107 -136 -223 -136
-420 0 -105 5 -146 23 -213 68 -245 264 -365 566 -349 125 7 203 26 287 68
l58 29 0 86 c0 78 -2 85 -17 79 -177 -76 -355 -94 -485 -50 -95 33 -161 122
-175 236 l-6 49 356 0 c304 0 356 2 361 15 5 14 1 116 -9 225 -16 170 -111
311 -241 360 -96 35 -208 46 -309 29z m189 -193 c69 -29 116 -118 116 -220 l0
-46 -231 0 -232 0 6 44 c15 105 61 181 130 215 50 25 160 29 211 7z"/>
<path d="M24740 2705 c-154 -35 -271 -125 -334 -258 -46 -97 -60 -169 -60
-312 1 -187 41 -311 133 -408 90 -95 187 -135 351 -144 173 -9 299 34 406 141
107 107 148 228 148 431 0 290 -103 461 -323 535 -84 28 -233 35 -321 15z
m246 -198 c52 -27 91 -73 115 -135 31 -80 39 -298 15 -392 -37 -143 -100 -201
-226 -208 -103 -6 -155 10 -206 63 -67 69 -79 119 -79 320 0 162 1 172 26 225
31 65 82 116 135 136 50 19 177 13 220 -9z"/>
<path d="M26049 2697 c-56 -16 -133 -60 -176 -100 l-33 -31 0 67 0 67 -115 0
-115 0 0 -550 0 -550 120 0 120 0 0 408 0 408 43 22 c65 32 172 54 250 50 l68
-3 -3 110 -3 110 -55 2 c-30 1 -76 -4 -101 -10z"/>
<path d="M22683 2623 c12 -43 80 -289 152 -548 l130 -470 124 0 124 0 108 363
c59 200 109 366 112 368 6 6 16 -28 127 -401 39 -132 78 -261 86 -287 l16 -48
118 0 c104 0 119 2 124 18 13 43 296 1074 296 1078 0 3 -51 3 -112 2 l-113 -3
-95 -387 c-52 -213 -98 -389 -101 -392 -3 -3 -47 144 -99 327 -51 182 -102
360 -112 395 l-19 63 -101 -3 -101 -3 -111 -392 c-61 -216 -113 -390 -116
-387 -3 3 -48 179 -100 392 l-95 387 -132 3 -131 3 21 -78z"/>
<path d="M26876 2439 c-103 -143 -188 -264 -189 -268 -1 -4 85 -134 191 -289
l193 -282 136 0 135 0 -18 28 c-9 15 -100 146 -201 290 l-183 264 22 31 c12
18 96 132 185 255 90 122 163 225 163 227 0 3 -56 5 -124 5 l-124 0 -186 -261z"/>
</g>
</svg>
